<svg xmlns="http://www.w3.org/2000/svg" width="788" height="458" font-family="Helvetica, Arial, sans-serif">
<defs><marker id="arrL" viewBox="0 0 10 10" refX="1" refY="5" markerWidth="7" markerHeight="7" orient="auto"><path d="M 10 0 L 0 5 L 10 10 z" fill="#222"/></marker><marker id="arrR" viewBox="0 0 10 10" refX="9" refY="5" markerWidth="7" markerHeight="7" orient="auto-start-reverse"><path d="M 0 0 L 10 5 L 0 10 z" fill="#222"/></marker><marker id="axisArr" viewBox="0 0 12 12" refX="11" refY="6" markerWidth="5" markerHeight="5" orient="auto-start-reverse"><path d="M 0 0 L 12 6 L 0 12 Z" fill="#333"/></marker><marker id="axisArrX" viewBox="0 0 12 12" refX="11" refY="6" markerWidth="5" markerHeight="5" orient="auto-start-reverse"><path d="M 0 0 L 12 6 L 0 12 Z" fill="#d32f2f"/></marker><marker id="axisArrY" viewBox="0 0 12 12" refX="11" refY="6" markerWidth="5" markerHeight="5" orient="auto-start-reverse"><path d="M 0 0 L 12 6 L 0 12 Z" fill="#2e7d32"/></marker><marker id="axisArrZ" viewBox="0 0 12 12" refX="11" refY="6" markerWidth="5" markerHeight="5" orient="auto-start-reverse"><path d="M 0 0 L 12 6 L 0 12 Z" fill="#1565c0"/></marker></defs>
<rect width="788" height="458" fill="white"/>
<text x="394" y="32" text-anchor="middle" font-size="20" font-weight="bold">Cable Channel</text>
<text x="394" y="52" text-anchor="middle" font-size="11" fill="#555">Dimensioned Draft (mm)</text>
<g transform="translate(-9.00, -5.40)">
<text x="130.09" y="122.40" text-anchor="start" font-size="14" font-weight="bold">Cross-section</text>
<line x1="242.91" y1="122.4" x2="264.91" y2="122.4" stroke="#2e7d32" stroke-width="0.9" marker-end="url(#axisArrY)"/>
<line x1="242.91" y1="122.4" x2="242.91" y2="100.4" stroke="#1565c0" stroke-width="0.9" marker-end="url(#axisArrZ)"/>
<text x="245.91" y="100.4" dominant-baseline="hanging" font-size="7.5" fill="#1565c0" text-anchor="start">Z</text>
<text x="264.91" y="119.4" font-size="7.5" fill="#2e7d32" text-anchor="end">Y</text>
<path d="M 150.00 375.00 L 360.00 375.00 L 360.00 242.00 L 347.92 242.00 L 338.48 217.50 L 347.92 208.06 L 347.92 194.40 L 326.40 194.40 L 326.40 228.00 L 343.20 271.62 L 343.20 358.20 L 166.80 358.20 L 166.80 271.62 L 183.60 228.00 L 183.60 194.40 L 162.08 194.40 L 162.08 208.06 L 171.52 217.50 L 162.08 242.00 L 150.00 242.00 Z" fill="#dde3ea" stroke="#1f2933" stroke-width="0.9"/>
<text x="345.54" y="245.46" text-anchor="middle" dominant-baseline="central" font-size="6" fill="#1f6feb">A</text>
<text x="334.38" y="216.63" text-anchor="middle" dominant-baseline="central" font-size="6" fill="#1f6feb">B</text>
<text x="351.80" y="209.67" text-anchor="middle" dominant-baseline="central" font-size="6" fill="#1f6feb">C</text>
<text x="350.89" y="191.43" text-anchor="middle" dominant-baseline="central" font-size="6" fill="#1f6feb">D</text>
<text x="323.43" y="191.43" text-anchor="middle" dominant-baseline="central" font-size="6" fill="#1f6feb">E</text>
<text x="322.27" y="228.77" text-anchor="middle" dominant-baseline="central" font-size="6" fill="#1f6feb">F</text>
<text x="347.33" y="270.85" text-anchor="middle" dominant-baseline="central" font-size="6" fill="#1f6feb">G</text>
<text x="346.17" y="361.17" text-anchor="middle" dominant-baseline="central" font-size="6" fill="#1f6feb">H</text>
<line x1="183.60" y1="194.40" x2="183.60" y2="178.40" stroke="#666" stroke-width="0.5"/>
<line x1="326.40" y1="194.40" x2="326.40" y2="178.40" stroke="#666" stroke-width="0.5"/>
<line x1="183.60" y1="178.40" x2="326.40" y2="178.40" stroke="#222" stroke-width="0.8" marker-start="url(#arrL)" marker-end="url(#arrR)"/>
<text x="255.00" y="175.40" text-anchor="middle" font-size="11">10.2</text>
<line x1="150.00" y1="194.40" x2="150.00" y2="154.40" stroke="#666" stroke-width="0.5"/>
<line x1="360.00" y1="194.40" x2="360.00" y2="154.40" stroke="#666" stroke-width="0.5"/>
<line x1="150.00" y1="154.40" x2="360.00" y2="154.40" stroke="#222" stroke-width="0.8" marker-start="url(#arrL)" marker-end="url(#arrR)"/>
<text x="255.00" y="151.40" text-anchor="middle" font-size="11">15</text>
<line x1="150.00" y1="375.00" x2="130.00" y2="375.00" stroke="#666" stroke-width="0.5"/>
<line x1="150.00" y1="358.20" x2="130.00" y2="358.20" stroke="#666" stroke-width="0.5"/>
<line x1="130.00" y1="375.00" x2="130.00" y2="358.20" stroke="#222" stroke-width="0.8" marker-start="url(#arrL)" marker-end="url(#arrR)"/>
<text x="127.00" y="370.60" text-anchor="end" font-size="11">1.2</text>
<line x1="150.00" y1="358.20" x2="130.00" y2="358.20" stroke="#666" stroke-width="0.5"/>
<line x1="150.00" y1="271.62" x2="130.00" y2="271.62" stroke="#666" stroke-width="0.5"/>
<line x1="130.00" y1="358.20" x2="130.00" y2="271.62" stroke="#222" stroke-width="0.8" marker-start="url(#arrL)" marker-end="url(#arrR)"/>
<text x="127.00" y="318.91" text-anchor="end" font-size="11">6.184</text>
<line x1="150.00" y1="271.62" x2="130.00" y2="271.62" stroke="#666" stroke-width="0.5"/>
<line x1="150.00" y1="242.00" x2="130.00" y2="242.00" stroke="#666" stroke-width="0.5"/>
<line x1="130.00" y1="271.62" x2="130.00" y2="242.00" stroke="#222" stroke-width="0.8" marker-start="url(#arrL)" marker-end="url(#arrR)"/>
<text x="127.00" y="260.81" text-anchor="end" font-size="11">2.116</text>
<line x1="150.00" y1="242.00" x2="130.00" y2="242.00" stroke="#666" stroke-width="0.5"/>
<line x1="150.00" y1="228.00" x2="130.00" y2="228.00" stroke="#666" stroke-width="0.5"/>
<line x1="130.00" y1="242.00" x2="130.00" y2="228.00" stroke="#222" stroke-width="0.8" marker-start="url(#arrL)" marker-end="url(#arrR)"/>
<text x="127.00" y="239.00" text-anchor="end" font-size="11">1</text>
<line x1="150.00" y1="228.00" x2="130.00" y2="228.00" stroke="#666" stroke-width="0.5"/>
<line x1="150.00" y1="194.40" x2="130.00" y2="194.40" stroke="#666" stroke-width="0.5"/>
<line x1="130.00" y1="228.00" x2="130.00" y2="194.40" stroke="#222" stroke-width="0.8" marker-start="url(#arrL)" marker-end="url(#arrR)"/>
<text x="127.00" y="215.20" text-anchor="end" font-size="11">2.4</text>
<line x1="150.00" y1="358.20" x2="100.00" y2="358.20" stroke="#666" stroke-width="0.5"/>
<line x1="150.00" y1="242.00" x2="100.00" y2="242.00" stroke="#666" stroke-width="0.5"/>
<line x1="100.00" y1="358.20" x2="100.00" y2="242.00" stroke="#222" stroke-width="0.8" marker-start="url(#arrL)" marker-end="url(#arrR)"/>
<text x="97.00" y="304.10" text-anchor="end" font-size="11">8.3</text>
<line x1="150.00" y1="242.00" x2="100.00" y2="242.00" stroke="#666" stroke-width="0.5"/>
<line x1="150.00" y1="194.40" x2="100.00" y2="194.40" stroke="#666" stroke-width="0.5"/>
<line x1="100.00" y1="242.00" x2="100.00" y2="194.40" stroke="#222" stroke-width="0.8" marker-start="url(#arrL)" marker-end="url(#arrR)"/>
<text x="97.00" y="222.20" text-anchor="end" font-size="11">3.4</text>
<line x1="150.00" y1="375.00" x2="70.00" y2="375.00" stroke="#666" stroke-width="0.5"/>
<line x1="150.00" y1="194.40" x2="70.00" y2="194.40" stroke="#666" stroke-width="0.5"/>
<line x1="70.00" y1="375.00" x2="70.00" y2="194.40" stroke="#222" stroke-width="0.8" marker-start="url(#arrL)" marker-end="url(#arrR)"/>
<text x="67.00" y="288.70" text-anchor="end" font-size="11">12.9</text>
<text x="70.00" y="405.00" text-anchor="start" font-size="8.5" fill="#777">corners A–D rounded R0.4 (rim_fillet) — drawn in the rim detail</text>
<text x="70.00" y="418.00" text-anchor="start" font-size="8.5" fill="#777">floor lock pad and end connectors are in the puzzle_connector draft</text>
</g>
<g transform="translate(-130.25, -4.00)">
<text x="590.26" y="121.00" text-anchor="start" font-size="14" font-weight="bold">Top rim detail (right side)</text>
<line x1="777.74" y1="121.0" x2="799.74" y2="121.0" stroke="#2e7d32" stroke-width="0.9" marker-end="url(#axisArrY)"/>
<line x1="777.74" y1="121.0" x2="777.74" y2="99.0" stroke="#1565c0" stroke-width="0.9" marker-end="url(#axisArrZ)"/>
<text x="780.74" y="99.0" dominant-baseline="hanging" font-size="7.5" fill="#1565c0" text-anchor="start">Z</text>
<text x="799.74" y="118.0" font-size="7.5" fill="#2e7d32" text-anchor="end">Y</text>
<path d="M 744.00 371.00 L 708.70 371.00 L 705.10 370.73 L 701.58 369.92 L 698.23 368.60 L 695.11 366.79 L 692.30 364.53 L 689.86 361.87 L 687.84 358.88 L 686.30 355.63 L 657.39 280.56 L 656.38 277.26 L 655.86 273.84 L 655.84 270.38 L 656.31 266.96 L 657.26 263.64 L 658.69 260.49 L 660.55 257.58 L 662.81 254.97 L 685.19 232.59 L 686.77 230.84 L 688.18 228.95 L 689.39 226.93 L 690.39 224.80 L 691.19 222.59 L 691.76 220.30 L 692.10 217.97 L 692.22 215.62 L 692.22 191.00 L 691.76 186.32 L 690.39 181.82 L 688.18 177.67 L 685.19 174.03 L 681.55 171.04 L 677.40 168.83 L 672.90 167.46 L 668.22 167.00 L 600.00 167.00 L 600.00 311.00 L 623.11 371.00 Z" fill="#dde3ea" stroke="#1f2933" stroke-width="0.9"/>
<line x1="744.00" y1="371.00" x2="758.00" y2="371.00" stroke="#666" stroke-width="0.5"/>
<line x1="744.00" y1="311.00" x2="758.00" y2="311.00" stroke="#666" stroke-width="0.5"/>
<line x1="758.00" y1="371.00" x2="758.00" y2="311.00" stroke="#222" stroke-width="0.8" marker-start="url(#arrL)" marker-end="url(#arrR)"/>
<text x="761.00" y="345.00" text-anchor="start" font-size="11">1</text>
<line x1="744.00" y1="311.00" x2="758.00" y2="311.00" stroke="#666" stroke-width="0.5"/>
<line x1="744.00" y1="266.00" x2="758.00" y2="266.00" stroke="#666" stroke-width="0.5"/>
<line x1="758.00" y1="311.00" x2="758.00" y2="266.00" stroke="#222" stroke-width="0.8" marker-start="url(#arrL)" marker-end="url(#arrR)"/>
<text x="761.00" y="292.50" text-anchor="start" font-size="11">0.75</text>
<line x1="744.00" y1="266.00" x2="758.00" y2="266.00" stroke="#666" stroke-width="0.5"/>
<line x1="744.00" y1="225.56" x2="758.00" y2="225.56" stroke="#666" stroke-width="0.5"/>
<line x1="758.00" y1="266.00" x2="758.00" y2="225.56" stroke="#222" stroke-width="0.8" marker-start="url(#arrL)" marker-end="url(#arrR)"/>
<text x="761.00" y="249.78" text-anchor="start" font-size="11">0.674</text>
<line x1="744.00" y1="225.56" x2="758.00" y2="225.56" stroke="#666" stroke-width="0.5"/>
<line x1="744.00" y1="167.00" x2="758.00" y2="167.00" stroke="#666" stroke-width="0.5"/>
<line x1="758.00" y1="225.56" x2="758.00" y2="167.00" stroke="#222" stroke-width="0.8" marker-start="url(#arrL)" marker-end="url(#arrR)"/>
<text x="761.00" y="200.28" text-anchor="start" font-size="11">0.976</text>
<line x1="744.00" y1="371.00" x2="789.00" y2="371.00" stroke="#666" stroke-width="0.5"/>
<line x1="744.00" y1="167.00" x2="789.00" y2="167.00" stroke="#666" stroke-width="0.5"/>
<line x1="789.00" y1="371.00" x2="789.00" y2="167.00" stroke="#222" stroke-width="0.8" marker-start="url(#arrL)" marker-end="url(#arrR)"/>
<text x="792.00" y="273.00" text-anchor="start" font-size="11">3.4</text>
<line x1="600.00" y1="167.00" x2="600.00" y2="153.00" stroke="#666" stroke-width="0.5"/>
<line x1="692.22" y1="167.00" x2="692.22" y2="153.00" stroke="#666" stroke-width="0.5"/>
<line x1="600.00" y1="153.00" x2="692.22" y2="153.00" stroke="#222" stroke-width="0.8" marker-start="url(#arrL)" marker-end="url(#arrR)"/>
<text x="646.11" y="150.00" text-anchor="middle" font-size="11">1.537</text>
<line x1="692.22" y1="167.00" x2="692.22" y2="153.00" stroke="#666" stroke-width="0.5"/>
<line x1="744.00" y1="167.00" x2="744.00" y2="153.00" stroke="#666" stroke-width="0.5"/>
<line x1="692.22" y1="153.00" x2="744.00" y2="153.00" stroke="#222" stroke-width="0.8" marker-start="url(#arrL)" marker-end="url(#arrR)"/>
<text x="718.11" y="150.00" text-anchor="middle" font-size="11">0.863</text>
<line x1="651.78" y1="371.00" x2="651.78" y2="385.00" stroke="#666" stroke-width="0.5"/>
<line x1="692.22" y1="371.00" x2="692.22" y2="385.00" stroke="#666" stroke-width="0.5"/>
<line x1="651.78" y1="385.00" x2="692.22" y2="385.00" stroke="#222" stroke-width="0.8" marker-start="url(#arrL)" marker-end="url(#arrR)"/>
<text x="672.00" y="397.00" text-anchor="middle" font-size="11">0.674</text>
<text x="700.00" y="423.00" text-anchor="middle" font-size="8.5" fill="#777">A–D filleted R0.4; the cap inner profile carries the same arcs, so the fit stays tight</text>
</g>
</svg>
