<svg xmlns="http://www.w3.org/2000/svg" width="1000" height="800" font-family="Helvetica, Arial, sans-serif">
<defs><marker id="arrL" viewBox="0 0 10 10" refX="1" refY="5" markerWidth="7" markerHeight="7" orient="auto"><path d="M 10 0 L 0 5 L 10 10 z" fill="#222"/></marker><marker id="arrR" viewBox="0 0 10 10" refX="9" refY="5" markerWidth="7" markerHeight="7" orient="auto-start-reverse"><path d="M 0 0 L 10 5 L 0 10 z" fill="#222"/></marker><marker id="axisArr" viewBox="0 0 12 12" refX="11" refY="6" markerWidth="5" markerHeight="5" orient="auto-start-reverse"><path d="M 0 0 L 12 6 L 0 12 Z" fill="#333"/></marker></defs>
<rect width="1000" height="800" fill="white"/>
<text x="500" y="32" text-anchor="middle" font-size="20" font-weight="bold">Cable Channel — Dimensioned Draft</text>
<text x="500" y="52" text-anchor="middle" font-size="11" fill="#555">all dimensions in mm</text>
<line x1="220" y1="200" x2="242" y2="200" stroke="#333" stroke-width="0.9" marker-end="url(#axisArr)"/>
<line x1="220" y1="200" x2="220" y2="178" stroke="#333" stroke-width="0.9" marker-end="url(#axisArr)"/>
<text x="223" y="178" dominant-baseline="hanging" font-size="7.5" fill="#333" text-anchor="start">Z</text>
<text x="242" y="197" font-size="7.5" fill="#333" text-anchor="end">Y</text>
<text x="256" y="200" text-anchor="start" font-size="14" font-weight="bold">Cross-section</text>
<path d="M 150.00 455.00 L 430.00 455.00 L 430.00 322.00 L 409.00 322.00 L 399.56 297.50 L 409.00 292.60 L 409.00 274.40 L 388.00 274.40 L 388.00 308.00 L 409.00 392.00 L 409.00 434.00 L 171.00 434.00 L 171.00 392.00 L 192.00 308.00 L 192.00 274.40 L 171.00 274.40 L 171.00 292.60 L 180.44 297.50 L 171.00 322.00 L 150.00 322.00 Z" fill="#dde3ea" stroke="#1f2933" stroke-width="0.9"/>
<line x1="164.00" y1="434.00" x2="171.00" y2="413.00" stroke="#c0392b" stroke-width="0.9" stroke-dasharray="4,3"/>
<line x1="416.00" y1="434.00" x2="409.00" y2="413.00" stroke="#c0392b" stroke-width="0.9" stroke-dasharray="4,3"/>
<text x="290.00" y="445.20" text-anchor="middle" font-size="9" fill="#c0392b">cavity slope (at Y-ends only)</text>
<line x1="150.00" y1="274.40" x2="150.00" y2="258.40" stroke="#666" stroke-width="0.5"/>
<line x1="171.00" y1="274.40" x2="171.00" y2="258.40" stroke="#666" stroke-width="0.5"/>
<line x1="150.00" y1="258.40" x2="171.00" y2="258.40" stroke="#222" stroke-width="0.8" marker-start="url(#arrL)" marker-end="url(#arrR)"/>
<text x="160.50" y="255.40" text-anchor="middle" font-size="11">1.5</text>
<line x1="171.00" y1="274.40" x2="171.00" y2="258.40" stroke="#666" stroke-width="0.5"/>
<line x1="192.00" y1="274.40" x2="192.00" y2="258.40" stroke="#666" stroke-width="0.5"/>
<line x1="171.00" y1="258.40" x2="192.00" y2="258.40" stroke="#222" stroke-width="0.8" marker-start="url(#arrL)" marker-end="url(#arrR)"/>
<text x="181.50" y="255.40" text-anchor="middle" font-size="11">1.5</text>
<line x1="192.00" y1="274.40" x2="192.00" y2="258.40" stroke="#666" stroke-width="0.5"/>
<line x1="388.00" y1="274.40" x2="388.00" y2="258.40" stroke="#666" stroke-width="0.5"/>
<line x1="192.00" y1="258.40" x2="388.00" y2="258.40" stroke="#222" stroke-width="0.8" marker-start="url(#arrL)" marker-end="url(#arrR)"/>
<text x="290.00" y="255.40" text-anchor="middle" font-size="11">14</text>
<line x1="388.00" y1="274.40" x2="388.00" y2="258.40" stroke="#666" stroke-width="0.5"/>
<line x1="409.00" y1="274.40" x2="409.00" y2="258.40" stroke="#666" stroke-width="0.5"/>
<line x1="388.00" y1="258.40" x2="409.00" y2="258.40" stroke="#222" stroke-width="0.8" marker-start="url(#arrL)" marker-end="url(#arrR)"/>
<text x="398.50" y="255.40" text-anchor="middle" font-size="11">1.5</text>
<line x1="409.00" y1="274.40" x2="409.00" y2="258.40" stroke="#666" stroke-width="0.5"/>
<line x1="430.00" y1="274.40" x2="430.00" y2="258.40" stroke="#666" stroke-width="0.5"/>
<line x1="409.00" y1="258.40" x2="430.00" y2="258.40" stroke="#222" stroke-width="0.8" marker-start="url(#arrL)" marker-end="url(#arrR)"/>
<text x="419.50" y="255.40" text-anchor="middle" font-size="11">1.5</text>
<line x1="150.00" y1="274.40" x2="150.00" y2="234.40" stroke="#666" stroke-width="0.5"/>
<line x1="430.00" y1="274.40" x2="430.00" y2="234.40" stroke="#666" stroke-width="0.5"/>
<line x1="150.00" y1="234.40" x2="430.00" y2="234.40" stroke="#222" stroke-width="0.8" marker-start="url(#arrL)" marker-end="url(#arrR)"/>
<text x="290.00" y="231.40" text-anchor="middle" font-size="11">20</text>
<line x1="150.00" y1="455.00" x2="130.00" y2="455.00" stroke="#666" stroke-width="0.5"/>
<line x1="150.00" y1="434.00" x2="130.00" y2="434.00" stroke="#666" stroke-width="0.5"/>
<line x1="130.00" y1="455.00" x2="130.00" y2="434.00" stroke="#222" stroke-width="0.8" marker-start="url(#arrL)" marker-end="url(#arrR)"/>
<text x="127.00" y="448.50" text-anchor="end" font-size="11">1.5</text>
<line x1="150.00" y1="434.00" x2="130.00" y2="434.00" stroke="#666" stroke-width="0.5"/>
<line x1="150.00" y1="392.00" x2="130.00" y2="392.00" stroke="#666" stroke-width="0.5"/>
<line x1="130.00" y1="434.00" x2="130.00" y2="392.00" stroke="#222" stroke-width="0.8" marker-start="url(#arrL)" marker-end="url(#arrR)"/>
<text x="127.00" y="417.00" text-anchor="end" font-size="11">3</text>
<line x1="150.00" y1="392.00" x2="130.00" y2="392.00" stroke="#666" stroke-width="0.5"/>
<line x1="150.00" y1="322.00" x2="130.00" y2="322.00" stroke="#666" stroke-width="0.5"/>
<line x1="130.00" y1="392.00" x2="130.00" y2="322.00" stroke="#222" stroke-width="0.8" marker-start="url(#arrL)" marker-end="url(#arrR)"/>
<text x="127.00" y="361.00" text-anchor="end" font-size="11">5</text>
<line x1="150.00" y1="322.00" x2="130.00" y2="322.00" stroke="#666" stroke-width="0.5"/>
<line x1="150.00" y1="308.00" x2="130.00" y2="308.00" stroke="#666" stroke-width="0.5"/>
<line x1="130.00" y1="322.00" x2="130.00" y2="308.00" stroke="#222" stroke-width="0.8" marker-start="url(#arrL)" marker-end="url(#arrR)"/>
<text x="127.00" y="319.00" text-anchor="end" font-size="11">1</text>
<line x1="150.00" y1="308.00" x2="130.00" y2="308.00" stroke="#666" stroke-width="0.5"/>
<line x1="150.00" y1="274.40" x2="130.00" y2="274.40" stroke="#666" stroke-width="0.5"/>
<line x1="130.00" y1="308.00" x2="130.00" y2="274.40" stroke="#222" stroke-width="0.8" marker-start="url(#arrL)" marker-end="url(#arrR)"/>
<text x="127.00" y="295.20" text-anchor="end" font-size="11">2.4</text>
<line x1="150.00" y1="434.00" x2="100.00" y2="434.00" stroke="#666" stroke-width="0.5"/>
<line x1="150.00" y1="322.00" x2="100.00" y2="322.00" stroke="#666" stroke-width="0.5"/>
<line x1="100.00" y1="434.00" x2="100.00" y2="322.00" stroke="#222" stroke-width="0.8" marker-start="url(#arrL)" marker-end="url(#arrR)"/>
<text x="97.00" y="382.00" text-anchor="end" font-size="11">8</text>
<line x1="150.00" y1="322.00" x2="100.00" y2="322.00" stroke="#666" stroke-width="0.5"/>
<line x1="150.00" y1="274.40" x2="100.00" y2="274.40" stroke="#666" stroke-width="0.5"/>
<line x1="100.00" y1="322.00" x2="100.00" y2="274.40" stroke="#222" stroke-width="0.8" marker-start="url(#arrL)" marker-end="url(#arrR)"/>
<text x="97.00" y="302.20" text-anchor="end" font-size="11">3.4</text>
<line x1="150.00" y1="455.00" x2="70.00" y2="455.00" stroke="#666" stroke-width="0.5"/>
<line x1="150.00" y1="274.40" x2="70.00" y2="274.40" stroke="#666" stroke-width="0.5"/>
<line x1="70.00" y1="455.00" x2="70.00" y2="274.40" stroke="#222" stroke-width="0.8" marker-start="url(#arrL)" marker-end="url(#arrR)"/>
<text x="67.00" y="368.70" text-anchor="end" font-size="11">12.9</text>
<line x1="515" y1="200" x2="537" y2="200" stroke="#333" stroke-width="0.9" marker-end="url(#axisArr)"/>
<line x1="515" y1="200" x2="515" y2="178" stroke="#333" stroke-width="0.9" marker-end="url(#axisArr)"/>
<text x="518" y="178" dominant-baseline="hanging" font-size="7.5" fill="#333" text-anchor="start">Z</text>
<text x="537" y="197" font-size="7.5" fill="#333" text-anchor="end">Y</text>
<text x="551" y="200" text-anchor="start" font-size="14" font-weight="bold">Right corner detail</text>
<path d="M 540.00 405.00 L 660.00 405.00 L 660.00 245.00 L 540.00 245.00 Z" fill="#dde3ea" stroke="#1f2933" stroke-width="0.9"/>
<line x1="580.00" y1="405.00" x2="540.00" y2="285.00" stroke="#c0392b" stroke-width="1.2" stroke-dasharray="5,3"/>
<line x1="540.00" y1="245.00" x2="540.00" y2="231.00" stroke="#666" stroke-width="0.5"/>
<line x1="660.00" y1="245.00" x2="660.00" y2="231.00" stroke="#666" stroke-width="0.5"/>
<line x1="540.00" y1="231.00" x2="660.00" y2="231.00" stroke="#222" stroke-width="0.8" marker-start="url(#arrL)" marker-end="url(#arrR)"/>
<text x="600.00" y="228.00" text-anchor="middle" font-size="11">1.5  (wall thickness)</text>
<line x1="580.00" y1="405.00" x2="580.00" y2="419.00" stroke="#666" stroke-width="0.5"/>
<line x1="660.00" y1="405.00" x2="660.00" y2="419.00" stroke="#666" stroke-width="0.5"/>
<line x1="580.00" y1="419.00" x2="660.00" y2="419.00" stroke="#222" stroke-width="0.8" marker-start="url(#arrL)" marker-end="url(#arrR)"/>
<text x="620.00" y="431.00" text-anchor="middle" font-size="11">1.0</text>
<line x1="660.00" y1="405.00" x2="678.00" y2="405.00" stroke="#666" stroke-width="0.5"/>
<line x1="660.00" y1="285.00" x2="678.00" y2="285.00" stroke="#666" stroke-width="0.5"/>
<line x1="678.00" y1="405.00" x2="678.00" y2="285.00" stroke="#222" stroke-width="0.8" marker-start="url(#arrL)" marker-end="url(#arrR)"/>
<text x="681.00" y="349.00" text-anchor="start" font-size="11">1.5  (floor)</text>
<line x1="540.00" y1="285.00" x2="522.00" y2="285.00" stroke="#666" stroke-width="0.5"/>
<line x1="540.00" y1="245.00" x2="522.00" y2="245.00" stroke="#666" stroke-width="0.5"/>
<line x1="522.00" y1="285.00" x2="522.00" y2="245.00" stroke="#222" stroke-width="0.8" marker-start="url(#arrL)" marker-end="url(#arrR)"/>
<text x="519.00" y="269.00" text-anchor="end" font-size="11">0.5*</text>
<text x="568.00" y="293.00" text-anchor="start" font-size="8" fill="#c0392b">slope run: 0.5 mm</text>
<text x="568.00" y="309.00" text-anchor="start" font-size="8" fill="#c0392b">slope rise: 1.5 mm</text>
<text x="568.00" y="325.00" text-anchor="start" font-size="8" fill="#c0392b">(= wall_thickness)</text>
<text x="540.00" y="447.00" text-anchor="start" font-size="9" fill="#777">* slope_run (cavity widens by this on each side)</text>
<line x1="500" y1="510" x2="522" y2="510" stroke="#333" stroke-width="0.9" marker-end="url(#axisArr)"/>
<line x1="500" y1="510" x2="500" y2="488" stroke="#333" stroke-width="0.9" marker-end="url(#axisArr)"/>
<text x="503" y="488" dominant-baseline="hanging" font-size="7.5" fill="#333" text-anchor="start">Z</text>
<text x="522" y="507" font-size="7.5" fill="#333" text-anchor="end">Y</text>
<text x="536" y="510" text-anchor="start" font-size="14" font-weight="bold">Top rim detail (right side)</text>
<path d="M 720.00 760.00 L 630.00 760.00 L 589.56 655.00 L 630.00 634.00 L 630.00 556.00 L 540.00 556.00 L 540.00 700.00 L 555.00 760.00 Z" fill="#dde3ea" stroke="#1f2933" stroke-width="0.9"/>
<line x1="720.00" y1="760.00" x2="734.00" y2="760.00" stroke="#666" stroke-width="0.5"/>
<line x1="720.00" y1="700.00" x2="734.00" y2="700.00" stroke="#666" stroke-width="0.5"/>
<line x1="734.00" y1="760.00" x2="734.00" y2="700.00" stroke="#222" stroke-width="0.8" marker-start="url(#arrL)" marker-end="url(#arrR)"/>
<text x="737.00" y="734.00" text-anchor="start" font-size="11">1</text>
<line x1="720.00" y1="700.00" x2="734.00" y2="700.00" stroke="#666" stroke-width="0.5"/>
<line x1="720.00" y1="655.00" x2="734.00" y2="655.00" stroke="#666" stroke-width="0.5"/>
<line x1="734.00" y1="700.00" x2="734.00" y2="655.00" stroke="#222" stroke-width="0.8" marker-start="url(#arrL)" marker-end="url(#arrR)"/>
<text x="737.00" y="681.50" text-anchor="start" font-size="11">0.75</text>
<line x1="720.00" y1="655.00" x2="734.00" y2="655.00" stroke="#666" stroke-width="0.5"/>
<line x1="720.00" y1="634.00" x2="734.00" y2="634.00" stroke="#666" stroke-width="0.5"/>
<line x1="734.00" y1="655.00" x2="734.00" y2="634.00" stroke="#222" stroke-width="0.8" marker-start="url(#arrL)" marker-end="url(#arrR)"/>
<text x="737.00" y="648.50" text-anchor="start" font-size="11">0.35</text>
<line x1="720.00" y1="634.00" x2="734.00" y2="634.00" stroke="#666" stroke-width="0.5"/>
<line x1="720.00" y1="556.00" x2="734.00" y2="556.00" stroke="#666" stroke-width="0.5"/>
<line x1="734.00" y1="634.00" x2="734.00" y2="556.00" stroke="#222" stroke-width="0.8" marker-start="url(#arrL)" marker-end="url(#arrR)"/>
<text x="737.00" y="599.00" text-anchor="start" font-size="11">1.3</text>
<line x1="720.00" y1="760.00" x2="765.00" y2="760.00" stroke="#666" stroke-width="0.5"/>
<line x1="720.00" y1="556.00" x2="765.00" y2="556.00" stroke="#666" stroke-width="0.5"/>
<line x1="765.00" y1="760.00" x2="765.00" y2="556.00" stroke="#222" stroke-width="0.8" marker-start="url(#arrL)" marker-end="url(#arrR)"/>
<text x="768.00" y="662.00" text-anchor="start" font-size="11">3.4</text>
<line x1="540.00" y1="556.00" x2="540.00" y2="542.00" stroke="#666" stroke-width="0.5"/>
<line x1="630.00" y1="556.00" x2="630.00" y2="542.00" stroke="#666" stroke-width="0.5"/>
<line x1="540.00" y1="542.00" x2="630.00" y2="542.00" stroke="#222" stroke-width="0.8" marker-start="url(#arrL)" marker-end="url(#arrR)"/>
<text x="585.00" y="539.00" text-anchor="middle" font-size="11">1.5</text>
<line x1="589.56" y1="760.00" x2="589.56" y2="774.00" stroke="#666" stroke-width="0.5"/>
<line x1="630.00" y1="760.00" x2="630.00" y2="774.00" stroke="#666" stroke-width="0.5"/>
<line x1="589.56" y1="774.00" x2="630.00" y2="774.00" stroke="#222" stroke-width="0.8" marker-start="url(#arrL)" marker-end="url(#arrR)"/>
<text x="609.78" y="786.00" text-anchor="middle" font-size="11">0.674</text>
<line x1="225" y1="610" x2="247" y2="610" stroke="#333" stroke-width="0.9" marker-end="url(#axisArr)"/>
<line x1="225" y1="610" x2="225" y2="588" stroke="#333" stroke-width="0.9" marker-end="url(#axisArr)"/>
<text x="228" y="588" dominant-baseline="hanging" font-size="7.5" fill="#333" text-anchor="start">Z</text>
<text x="247" y="607" font-size="7.5" fill="#333" text-anchor="end">X</text>
<text x="261" y="610" text-anchor="start" font-size="14" font-weight="bold">Side view</text>
<rect x="80.00" y="678.40" width="400.00" height="51.60" fill="#dde3ea" stroke="#1f2933" stroke-width="0.9"/>
<rect x="80.00" y="718.00" width="44.00" height="6.00" fill="#fcebea" stroke="#c0392b" stroke-width="0.9" stroke-dasharray="4,3"/>
<rect x="436.00" y="718.00" width="44.00" height="6.00" fill="#fcebea" stroke="#c0392b" stroke-width="0.9" stroke-dasharray="4,3"/>
<text x="102.00" y="703.00" text-anchor="middle" font-size="10" fill="#c0392b">cavity</text>
<text x="458.00" y="703.00" text-anchor="middle" font-size="10" fill="#c0392b">cavity</text>
<line x1="80.00" y1="678.40" x2="80.00" y2="664.40" stroke="#666" stroke-width="0.5"/>
<line x1="124.00" y1="678.40" x2="124.00" y2="664.40" stroke="#666" stroke-width="0.5"/>
<line x1="80.00" y1="664.40" x2="124.00" y2="664.40" stroke="#222" stroke-width="0.8" marker-start="url(#arrL)" marker-end="url(#arrR)"/>
<text x="102.00" y="661.40" text-anchor="middle" font-size="11">11</text>
<line x1="124.00" y1="678.40" x2="124.00" y2="664.40" stroke="#666" stroke-width="0.5"/>
<line x1="436.00" y1="678.40" x2="436.00" y2="664.40" stroke="#666" stroke-width="0.5"/>
<line x1="124.00" y1="664.40" x2="436.00" y2="664.40" stroke="#222" stroke-width="0.8" marker-start="url(#arrL)" marker-end="url(#arrR)"/>
<text x="280.00" y="661.40" text-anchor="middle" font-size="11">78</text>
<line x1="436.00" y1="678.40" x2="436.00" y2="664.40" stroke="#666" stroke-width="0.5"/>
<line x1="480.00" y1="678.40" x2="480.00" y2="664.40" stroke="#666" stroke-width="0.5"/>
<line x1="436.00" y1="664.40" x2="480.00" y2="664.40" stroke="#222" stroke-width="0.8" marker-start="url(#arrL)" marker-end="url(#arrR)"/>
<text x="458.00" y="661.40" text-anchor="middle" font-size="11">11</text>
<line x1="80.00" y1="678.40" x2="80.00" y2="642.40" stroke="#666" stroke-width="0.5"/>
<line x1="480.00" y1="678.40" x2="480.00" y2="642.40" stroke="#666" stroke-width="0.5"/>
<line x1="80.00" y1="642.40" x2="480.00" y2="642.40" stroke="#222" stroke-width="0.8" marker-start="url(#arrL)" marker-end="url(#arrR)"/>
<text x="280.00" y="639.40" text-anchor="middle" font-size="11">100</text>
</svg>
