<svg xmlns="http://www.w3.org/2000/svg" width="1091" height="848" font-family="Helvetica, Arial, sans-serif">
<defs><marker id="arrL" viewBox="0 0 10 10" refX="1" refY="5" markerWidth="7" markerHeight="7" orient="auto"><path d="M 10 0 L 0 5 L 10 10 z" fill="#222"/></marker><marker id="arrR" viewBox="0 0 10 10" refX="9" refY="5" markerWidth="7" markerHeight="7" orient="auto-start-reverse"><path d="M 0 0 L 10 5 L 0 10 z" fill="#222"/></marker><marker id="axisArr" viewBox="0 0 12 12" refX="11" refY="6" markerWidth="5" markerHeight="5" orient="auto-start-reverse"><path d="M 0 0 L 12 6 L 0 12 Z" fill="#333"/></marker><marker id="axisArrX" viewBox="0 0 12 12" refX="11" refY="6" markerWidth="5" markerHeight="5" orient="auto-start-reverse"><path d="M 0 0 L 12 6 L 0 12 Z" fill="#d32f2f"/></marker><marker id="axisArrY" viewBox="0 0 12 12" refX="11" refY="6" markerWidth="5" markerHeight="5" orient="auto-start-reverse"><path d="M 0 0 L 12 6 L 0 12 Z" fill="#2e7d32"/></marker><marker id="axisArrZ" viewBox="0 0 12 12" refX="11" refY="6" markerWidth="5" markerHeight="5" orient="auto-start-reverse"><path d="M 0 0 L 12 6 L 0 12 Z" fill="#1565c0"/></marker></defs>
<rect width="1091" height="848" fill="white"/>
<text x="546" y="32" text-anchor="middle" font-size="20" font-weight="bold">Cable Channel - Puzzle Floor Connector</text>
<text x="546" y="52" text-anchor="middle" font-size="11" fill="#555">Dimensioned Draft (mm)</text>
<g transform="translate(-10.50, -4.00)">
<text x="270.94" y="121.00" text-anchor="start" font-size="14" font-weight="bold">End floor - top view</text>
<line x1="420.31" y1="121.0" x2="442.31" y2="121.0" stroke="#d32f2f" stroke-width="0.9" marker-end="url(#axisArrX)"/>
<line x1="420.31" y1="121.0" x2="420.31" y2="99.0" stroke="#2e7d32" stroke-width="0.9" marker-end="url(#axisArrY)"/>
<text x="423.31" y="99.0" dominant-baseline="hanging" font-size="7.5" fill="#2e7d32" text-anchor="start">Y</text>
<text x="442.31" y="118.0" font-size="7.5" fill="#d32f2f" text-anchor="end">X</text>
<path d="M 147.00 499.00 L 345.00 499.00 L 345.00 453.21 L 344.46 448.90 L 342.89 444.85 L 340.37 441.31 L 337.06 438.50 L 333.16 436.58 L 328.91 435.67 L 324.57 435.84 L 320.40 437.06 L 303.60 444.34 L 299.43 445.56 L 295.09 445.73 L 290.84 444.82 L 286.94 442.90 L 283.63 440.09 L 281.11 436.55 L 279.54 432.50 L 279.00 428.19 L 279.00 371.81 L 279.54 367.50 L 281.11 363.45 L 283.63 359.91 L 286.94 357.10 L 290.84 355.18 L 295.09 354.27 L 299.43 354.44 L 303.60 355.66 L 320.40 362.94 L 324.57 364.16 L 328.91 364.33 L 333.16 363.42 L 337.06 361.50 L 340.37 358.69 L 342.89 355.15 L 344.46 351.10 L 345.00 346.79 L 345.00 321.21 L 345.54 316.90 L 347.11 312.85 L 349.63 309.31 L 352.94 306.50 L 356.84 304.58 L 361.09 303.67 L 365.43 303.84 L 369.60 305.06 L 386.40 312.34 L 390.57 313.56 L 394.91 313.73 L 399.16 312.82 L 403.06 310.90 L 406.37 308.09 L 408.89 304.55 L 410.46 300.50 L 411.00 296.19 L 411.00 239.81 L 410.46 235.50 L 408.89 231.45 L 406.37 227.91 L 403.06 225.10 L 399.16 223.18 L 394.91 222.27 L 390.57 222.44 L 386.40 223.66 L 369.60 230.94 L 365.43 232.16 L 361.09 232.33 L 356.84 231.42 L 352.94 229.50 L 349.63 226.69 L 347.11 223.15 L 345.54 219.10 L 345.00 214.79 L 345.00 169.00 L 147.00 169.00 Z" fill="#dde3ea" stroke="#1f2933" stroke-width="0.9"/>
<line x1="147.00" y1="195.40" x2="345.00" y2="195.40" stroke="#999" stroke-width="0.5" stroke-dasharray="3,3"/>
<line x1="147.00" y1="472.60" x2="345.00" y2="472.60" stroke="#999" stroke-width="0.5" stroke-dasharray="3,3"/>
<text x="147.00" y="191.40" text-anchor="start" font-size="8" fill="#999">inner wall face (Y=6.3)</text>
<line x1="345.00" y1="499.00" x2="345.00" y2="169.00" stroke="#c0392b" stroke-width="0.8" stroke-dasharray="4,3"/>
<text x="345.00" y="334.00" text-anchor="middle" dominant-baseline="central" font-size="9" fill="#1f6feb">●</text>
<text x="337.00" y="338.00" text-anchor="end" font-size="8" fill="#1f6feb">180° rotation centre</text>
<text x="378.00" y="193.20" text-anchor="middle" font-size="9" fill="#222">dovetail tab</text>
<text x="312.00" y="400.00" text-anchor="middle" dominant-baseline="central" font-size="9" fill="#222">socket</text>
<line x1="147.00" y1="499.00" x2="117.00" y2="499.00" stroke="#666" stroke-width="0.5"/>
<line x1="147.00" y1="169.00" x2="117.00" y2="169.00" stroke="#666" stroke-width="0.5"/>
<line x1="117.00" y1="499.00" x2="117.00" y2="169.00" stroke="#222" stroke-width="0.8" marker-start="url(#arrL)" marker-end="url(#arrR)"/>
<text x="114.00" y="338.00" text-anchor="end" font-size="11">15  (width)</text>
<line x1="345.00" y1="169.00" x2="345.00" y2="153.00" stroke="#666" stroke-width="0.5"/>
<line x1="411.00" y1="169.00" x2="411.00" y2="153.00" stroke="#666" stroke-width="0.5"/>
<line x1="345.00" y1="153.00" x2="411.00" y2="153.00" stroke="#222" stroke-width="0.8" marker-start="url(#arrL)" marker-end="url(#arrR)"/>
<text x="378.00" y="150.00" text-anchor="middle" font-size="11">3  depth</text>
<line x1="411.00" y1="323.00" x2="427.00" y2="323.00" stroke="#666" stroke-width="0.5"/>
<line x1="411.00" y1="213.00" x2="427.00" y2="213.00" stroke="#666" stroke-width="0.5"/>
<line x1="427.00" y1="323.00" x2="427.00" y2="213.00" stroke="#222" stroke-width="0.8" marker-start="url(#arrL)" marker-end="url(#arrR)"/>
<text x="430.00" y="272.00" text-anchor="start" font-size="11">5 tip</text>
<line x1="411.00" y1="334.00" x2="469.00" y2="334.00" stroke="#666" stroke-width="0.5"/>
<line x1="411.00" y1="268.00" x2="469.00" y2="268.00" stroke="#666" stroke-width="0.5"/>
<line x1="469.00" y1="334.00" x2="469.00" y2="268.00" stroke="#222" stroke-width="0.8" marker-start="url(#arrL)" marker-end="url(#arrR)"/>
<text x="472.00" y="305.00" text-anchor="start" font-size="11">3 offset</text>
<line x1="345.00" y1="294.40" x2="380.20" y2="327.40" stroke="#666" stroke-width="0.5"/>
<text x="383.50" y="327.40" text-anchor="start" dominant-baseline="central" font-size="8.5" fill="#222">root 2.4</text>
<text x="147.00" y="519.00" text-anchor="start" font-size="8.5" fill="#777">all corners filleted R0.8; tab/socket are 180° rotations of each other</text>
<text x="147.00" y="532.00" text-anchor="start" font-size="8.5" fill="#777">socket is a through-cut of the lock pad, grown by the 0.05 fit clearance — profile shown in the middle band (0.6 ≤ z ≤ 1.8)</text>
</g>
<g transform="translate(151.62, -4.50)">
<text x="578.27" y="121.50" text-anchor="start" font-size="14" font-weight="bold">Mated pair (one piece rotated 180°)</text>
<line x1="829.73" y1="121.5" x2="851.73" y2="121.5" stroke="#d32f2f" stroke-width="0.9" marker-end="url(#axisArrX)"/>
<line x1="829.73" y1="121.5" x2="829.73" y2="99.5" stroke="#2e7d32" stroke-width="0.9" marker-end="url(#axisArrY)"/>
<text x="832.73" y="99.5" dominant-baseline="hanging" font-size="7.5" fill="#2e7d32" text-anchor="start">Y</text>
<text x="851.73" y="118.5" font-size="7.5" fill="#d32f2f" text-anchor="end">X</text>
<path d="M 585.00 364.50 L 720.00 364.50 L 720.00 333.28 L 719.63 330.34 L 718.56 327.58 L 716.84 325.17 L 714.59 323.25 L 711.93 321.94 L 709.03 321.32 L 706.07 321.43 L 703.23 322.27 L 691.77 327.23 L 688.93 328.07 L 685.97 328.18 L 683.07 327.56 L 680.41 326.25 L 678.16 324.33 L 676.44 321.92 L 675.37 319.16 L 675.00 316.22 L 675.00 277.78 L 675.37 274.84 L 676.44 272.08 L 678.16 269.67 L 680.41 267.75 L 683.07 266.44 L 685.97 265.82 L 688.93 265.93 L 691.77 266.77 L 703.23 271.73 L 706.07 272.57 L 709.03 272.68 L 711.93 272.06 L 714.59 270.75 L 716.84 268.83 L 718.56 266.42 L 719.63 263.66 L 720.00 260.72 L 720.00 243.28 L 720.37 240.34 L 721.44 237.58 L 723.16 235.17 L 725.41 233.25 L 728.07 231.94 L 730.97 231.32 L 733.93 231.43 L 736.77 232.27 L 748.23 237.23 L 751.07 238.07 L 754.03 238.18 L 756.93 237.56 L 759.59 236.25 L 761.84 234.33 L 763.56 231.92 L 764.63 229.16 L 765.00 226.22 L 765.00 187.78 L 764.63 184.84 L 763.56 182.08 L 761.84 179.67 L 759.59 177.75 L 756.93 176.44 L 754.03 175.82 L 751.07 175.93 L 748.23 176.77 L 736.77 181.73 L 733.93 182.57 L 730.97 182.68 L 728.07 182.06 L 725.41 180.75 L 723.16 178.83 L 721.44 176.42 L 720.37 173.66 L 720.00 170.72 L 720.00 139.50 L 585.00 139.50 Z" fill="#dde3ea" stroke="#1f2933" stroke-width="0.9"/>
<path d="M 720.00 364.50 L 720.00 333.28 L 719.63 330.34 L 718.56 327.58 L 716.84 325.17 L 714.59 323.25 L 711.93 321.94 L 709.03 321.32 L 706.07 321.43 L 703.23 322.27 L 691.77 327.23 L 688.93 328.07 L 685.97 328.18 L 683.07 327.56 L 680.41 326.25 L 678.16 324.33 L 676.44 321.92 L 675.37 319.16 L 675.00 316.22 L 675.00 277.78 L 675.37 274.84 L 676.44 272.08 L 678.16 269.67 L 680.41 267.75 L 683.07 266.44 L 685.97 265.82 L 688.93 265.93 L 691.77 266.77 L 703.23 271.73 L 706.07 272.57 L 709.03 272.68 L 711.93 272.06 L 714.59 270.75 L 716.84 268.83 L 718.56 266.42 L 719.63 263.66 L 720.00 260.72 L 720.00 243.28 L 720.37 240.34 L 721.44 237.58 L 723.16 235.17 L 725.41 233.25 L 728.07 231.94 L 730.97 231.32 L 733.93 231.43 L 736.77 232.27 L 748.23 237.23 L 751.07 238.07 L 754.03 238.18 L 756.93 237.56 L 759.59 236.25 L 761.84 234.33 L 763.56 231.92 L 764.63 229.16 L 765.00 226.22 L 765.00 187.78 L 764.63 184.84 L 763.56 182.08 L 761.84 179.67 L 759.59 177.75 L 756.93 176.44 L 754.03 175.82 L 751.07 175.93 L 748.23 176.77 L 736.77 181.73 L 733.93 182.57 L 730.97 182.68 L 728.07 182.06 L 725.41 180.75 L 723.16 178.83 L 721.44 176.42 L 720.37 173.66 L 720.00 170.72 L 720.00 139.50 L 855.00 139.50 L 855.00 364.50 Z" fill="#c8d4e3" stroke="#1f2933" stroke-width="0.9"/>
<text x="607.50" y="252.00" text-anchor="middle" dominant-baseline="central" font-size="12" fill="#222">A</text>
<text x="817.50" y="252.00" text-anchor="middle" dominant-baseline="central" font-size="11" fill="#222">B (flipped)</text>
<text x="720.00" y="384.50" text-anchor="middle" font-size="8.5" fill="#777">A's tab -> B's socket, and B's tab -> A's socket: the same part mates either way up</text>
</g>
<g transform="translate(45.50, -18.20)">
<text x="76.87" y="611.20" text-anchor="start" font-size="14" font-weight="bold">Side view: lock = 2× floor</text>
<line x1="263.63" y1="611.2" x2="285.63" y2="611.2" stroke="#d32f2f" stroke-width="0.9" marker-end="url(#axisArrX)"/>
<line x1="263.63" y1="611.2" x2="263.63" y2="589.2" stroke="#1565c0" stroke-width="0.9" marker-end="url(#axisArrZ)"/>
<text x="266.63" y="589.2" dominant-baseline="hanging" font-size="7.5" fill="#1565c0" text-anchor="start">Z</text>
<text x="285.63" y="608.2" font-size="7.5" fill="#d32f2f" text-anchor="end">X</text>
<rect x="57.00" y="683.60" width="97.90" height="26.40" fill="#dde3ea" stroke="#1f2933" stroke-width="0.9"/>
<path d="M 154.90 710.00 L 314.40 710.00 L 321.00 696.80 L 321.00 670.40 L 314.40 657.20 L 154.90 657.20 Z" fill="#dde3ea" stroke="#1f2933" stroke-width="0.9"/>
<line x1="255.00" y1="710.00" x2="255.00" y2="657.20" stroke="#c0392b" stroke-width="0.8" stroke-dasharray="4,3"/>
<text x="57.00" y="651.20" text-anchor="start" font-size="8.5" fill="#777">raised pad rises into the channel; floor bottom stays flat</text>
<text x="57.00" y="732.00" text-anchor="start" font-size="8.5" fill="#777">wall/rim butt flush above (not shown)</text>
<text x="57.00" y="745.00" text-anchor="start" font-size="8.5" fill="#777">tab faces pull in 0.3 over the top and bottom 0.6 — see lead-in section</text>
<line x1="57.00" y1="710.00" x2="43.00" y2="710.00" stroke="#666" stroke-width="0.5"/>
<line x1="57.00" y1="683.60" x2="43.00" y2="683.60" stroke="#666" stroke-width="0.5"/>
<line x1="43.00" y1="710.00" x2="43.00" y2="683.60" stroke="#222" stroke-width="0.8" marker-start="url(#arrL)" marker-end="url(#arrR)"/>
<text x="40.00" y="700.80" text-anchor="end" font-size="11">1.2 floor</text>
<line x1="321.00" y1="710.00" x2="335.00" y2="710.00" stroke="#666" stroke-width="0.5"/>
<line x1="321.00" y1="657.20" x2="335.00" y2="657.20" stroke="#666" stroke-width="0.5"/>
<line x1="335.00" y1="710.00" x2="335.00" y2="657.20" stroke="#222" stroke-width="0.8" marker-start="url(#arrL)" marker-end="url(#arrR)"/>
<text x="338.00" y="687.60" text-anchor="start" font-size="11">2.4 lock</text>
<line x1="255.00" y1="657.20" x2="255.00" y2="643.20" stroke="#666" stroke-width="0.5"/>
<line x1="321.00" y1="657.20" x2="321.00" y2="643.20" stroke="#666" stroke-width="0.5"/>
<line x1="255.00" y1="643.20" x2="321.00" y2="643.20" stroke="#222" stroke-width="0.8" marker-start="url(#arrL)" marker-end="url(#arrR)"/>
<text x="288.00" y="640.20" text-anchor="middle" font-size="11">3 depth</text>
</g>
<g transform="translate(-56.00, 112.00)">
<text x="642.10" y="481.00" text-anchor="start" font-size="14" font-weight="bold">Lead-in — section across the tab tip (mated)</text>
<line x1="956.40" y1="481.0" x2="978.40" y2="481.0" stroke="#2e7d32" stroke-width="0.9" marker-end="url(#axisArrY)"/>
<line x1="956.40" y1="481.0" x2="956.40" y2="459.0" stroke="#1565c0" stroke-width="0.9" marker-end="url(#axisArrZ)"/>
<text x="959.40" y="459.0" dominant-baseline="hanging" font-size="7.5" fill="#1565c0" text-anchor="start">Z</text>
<text x="978.40" y="478.0" font-size="7.5" fill="#2e7d32" text-anchor="end">Y</text>
<path d="M 630.00 649.00 L 700.00 649.00 L 715.00 619.00 L 715.00 559.00 L 700.00 529.00 L 630.00 529.00 Z" fill="#dde3ea" stroke="#1f2933" stroke-width="0.9"/>
<path d="M 1050.00 649.00 L 980.00 649.00 L 965.00 619.00 L 965.00 559.00 L 980.00 529.00 L 1050.00 529.00 Z" fill="#dde3ea" stroke="#1f2933" stroke-width="0.9"/>
<path d="M 730.00 649.00 L 950.00 649.00 L 965.00 619.00 L 965.00 559.00 L 950.00 529.00 L 730.00 529.00 L 715.00 559.00 L 715.00 619.00 Z" fill="#c8d4e3" stroke="#1f2933" stroke-width="0.9"/>
<text x="840.00" y="566.50" text-anchor="middle" dominant-baseline="central" font-size="9" fill="#222">B tab — drops in ▼</text>
<text x="840.00" y="611.50" text-anchor="middle" dominant-baseline="central" font-size="8" fill="#777">5 nominal (+0.05 clearance) in the middle band</text>
<text x="657.50" y="566.50" text-anchor="middle" dominant-baseline="central" font-size="9" fill="#222">A</text>
<text x="1022.50" y="566.50" text-anchor="middle" dominant-baseline="central" font-size="9" fill="#222">A</text>
<line x1="730.00" y1="529.00" x2="730.00" y2="513.00" stroke="#666" stroke-width="0.5"/>
<line x1="950.00" y1="529.00" x2="950.00" y2="513.00" stroke="#666" stroke-width="0.5"/>
<line x1="730.00" y1="513.00" x2="950.00" y2="513.00" stroke="#222" stroke-width="0.8" marker-start="url(#arrL)" marker-end="url(#arrR)"/>
<text x="840.00" y="510.00" text-anchor="middle" font-size="11">4.4 tab top (−0.3/side)</text>
<line x1="730.00" y1="649.00" x2="730.00" y2="663.00" stroke="#666" stroke-width="0.5"/>
<line x1="950.00" y1="649.00" x2="950.00" y2="663.00" stroke="#666" stroke-width="0.5"/>
<line x1="730.00" y1="663.00" x2="950.00" y2="663.00" stroke="#222" stroke-width="0.8" marker-start="url(#arrL)" marker-end="url(#arrR)"/>
<text x="840.00" y="675.00" text-anchor="middle" font-size="11">4.4 tab bottom (−0.3/side)</text>
<line x1="700.00" y1="649.00" x2="700.00" y2="685.00" stroke="#666" stroke-width="0.5"/>
<line x1="980.00" y1="649.00" x2="980.00" y2="685.00" stroke="#666" stroke-width="0.5"/>
<line x1="700.00" y1="685.00" x2="980.00" y2="685.00" stroke="#222" stroke-width="0.8" marker-start="url(#arrL)" marker-end="url(#arrR)"/>
<text x="840.00" y="697.00" text-anchor="middle" font-size="11">5.6 socket mouth at top and bottom (+0.3/side)</text>
<line x1="1050.00" y1="649.00" x2="1064.00" y2="649.00" stroke="#666" stroke-width="0.5"/>
<line x1="1050.00" y1="529.00" x2="1064.00" y2="529.00" stroke="#666" stroke-width="0.5"/>
<line x1="1064.00" y1="649.00" x2="1064.00" y2="529.00" stroke="#222" stroke-width="0.8" marker-start="url(#arrL)" marker-end="url(#arrR)"/>
<text x="1067.00" y="593.00" text-anchor="start" font-size="11">2.4 lock</text>
<line x1="630.00" y1="649.00" x2="616.00" y2="649.00" stroke="#666" stroke-width="0.5"/>
<line x1="630.00" y1="619.00" x2="616.00" y2="619.00" stroke="#666" stroke-width="0.5"/>
<line x1="616.00" y1="649.00" x2="616.00" y2="619.00" stroke="#222" stroke-width="0.8" marker-start="url(#arrL)" marker-end="url(#arrR)"/>
<text x="613.00" y="638.00" text-anchor="end" font-size="11">0.6 lead-in (25%)</text>
<line x1="630.00" y1="559.00" x2="616.00" y2="559.00" stroke="#666" stroke-width="0.5"/>
<line x1="630.00" y1="529.00" x2="616.00" y2="529.00" stroke="#666" stroke-width="0.5"/>
<line x1="616.00" y1="559.00" x2="616.00" y2="529.00" stroke="#222" stroke-width="0.8" marker-start="url(#arrL)" marker-end="url(#arrR)"/>
<text x="613.00" y="548.00" text-anchor="end" font-size="11">0.6</text>
</g>
</svg>
