<?xml version="1.0" standalone="no"?>
<!DOCTYPE svg PUBLIC "-//W3C//DTD SVG 20010904//EN"
 "http://www.w3.org/TR/2001/REC-SVG-20010904/DTD/svg10.dtd">
<svg version="1.0" xmlns="http://www.w3.org/2000/svg"
 width="2136.000000pt" height="1140.000000pt" viewBox="0 0 2136.000000 1140.000000"
 preserveAspectRatio="xMidYMid meet">
<metadata>
Created by potrace 1.15, written by Peter Selinger 2001-2017
</metadata>
<g transform="translate(0.000000,1140.000000) scale(0.100000,-0.100000)"
fill="#000000" stroke="none">
<path d="M16970 10520 l0 -40 -160 0 -160 0 0 -40 0 -40 -80 0 -80 0 0 -40 0
-40 -80 0 -80 0 0 -40 0 -40 -80 0 -80 0 0 -40 0 -40 -40 0 -40 0 0 -40 0 -40
-40 0 -40 0 0 -40 0 -40 -40 0 -40 0 0 -40 0 -40 -40 0 -40 0 0 -40 0 -40 -40
0 -40 0 0 -40 0 -40 -40 0 -40 0 0 -40 0 -40 -40 0 -40 0 0 -40 0 -40 -40 0
-40 0 0 -40 0 -40 -40 0 -40 0 0 -80 0 -80 -40 0 -40 0 0 -40 0 -40 -40 0 -40
0 0 -80 0 -80 -40 0 -40 0 0 -80 0 -80 -40 0 -40 0 0 -40 0 -40 -40 0 -40 0 0
-80 0 -80 -40 0 -40 0 0 -40 0 -40 -40 0 -40 0 0 -40 0 -40 -40 0 -40 0 0 -80
0 -80 -80 0 -80 0 0 -40 0 -40 -40 0 -40 0 0 -40 0 -40 -40 0 -40 0 0 -40 0
-40 -40 0 -40 0 0 -40 0 -40 -80 0 -80 0 0 -40 0 -40 -120 0 -120 0 0 -40 0
-40 -560 0 -560 0 0 40 0 40 -200 0 -200 0 0 40 0 40 -160 0 -160 0 0 40 0 40
-120 0 -120 0 0 40 0 40 -160 0 -160 0 0 40 0 40 -200 0 -200 0 0 40 0 40
-360 0 -360 0 0 -40 0 -40 -160 0 -160 0 0 -40 0 -40 -120 0 -120 0 0 -40 0
-40 -120 0 -120 0 0 -40 0 -40 -200 0 -200 0 0 -40 0 -40 -400 0 -400 0 0 40
0 40 -280 0 -280 0 0 40 0 40 -240 0 -240 0 0 40 0 40 -240 0 -240 0 0 40 0
40 -200 0 -200 0 0 -40 0 -40 -280 0 -280 0 0 -40 0 -40 -160 0 -160 0 0 -40
0 -40 -160 0 -160 0 0 -40 0 -40 -240 0 -240 0 0 -40 0 -40 -600 0 -600 0 0
40 0 40 -960 0 -960 0 0 -40 0 -40 -160 0 -160 0 0 -40 0 -40 -80 0 -80 0 0
-40 0 -40 -80 0 -80 0 0 -40 0 -40 -80 0 -80 0 0 -40 0 -40 -40 0 -40 0 0 -40
0 -40 -40 0 -40 0 0 -40 0 -40 -40 0 -40 0 0 -80 0 -80 -40 0 -40 0 0 -40 0
-40 -40 0 -40 0 0 -80 0 -80 -40 0 -40 0 0 -320 0 -320 40 0 40 0 0 -80 0 -80
40 0 40 0 0 -120 0 -120 40 0 40 0 0 -40 0 -40 40 0 40 0 0 -80 0 -80 40 0 40
0 0 -40 0 -40 40 0 40 0 0 -80 0 -80 40 0 40 0 0 -40 0 -40 40 0 40 0 0 -80 0
-80 40 0 40 0 0 -40 0 -40 40 0 40 0 0 -80 0 -80 40 0 40 0 0 -40 0 -40 40 0
40 0 0 -80 0 -80 40 0 40 0 0 -120 0 -120 40 0 40 0 0 -320 0 -320 40 0 40 0
0 -440 0 -440 40 0 40 0 0 -80 0 -80 40 0 40 0 0 -80 0 -80 40 0 40 0 0 -40 0
-40 80 0 80 0 0 -40 0 -40 40 0 40 0 0 -40 0 -40 120 0 120 0 0 -40 0 -40 280
0 280 0 0 40 0 40 120 0 120 0 0 40 0 40 80 0 80 0 0 40 0 40 160 0 160 0 0
40 0 40 320 0 320 0 0 -40 0 -40 200 0 200 0 0 -40 0 -40 400 0 400 0 0 40 0
40 80 0 80 0 0 40 0 40 40 0 40 0 0 40 0 40 40 0 40 0 0 40 0 40 40 0 40 0 0
40 0 40 40 0 40 0 0 80 0 80 40 0 40 0 0 80 0 80 40 0 40 0 0 200 0 200 40 0
40 0 0 360 0 360 40 0 40 0 0 80 0 80 40 0 40 0 0 80 0 80 80 0 80 0 0 40 0
40 120 0 120 0 0 40 0 40 160 0 160 0 0 -40 0 -40 80 0 80 0 0 -40 0 -40 40 0
40 0 0 -40 0 -40 40 0 40 0 0 -40 0 -40 40 0 40 0 0 -40 0 -40 40 0 40 0 0
-40 0 -40 40 0 40 0 0 -80 0 -80 40 0 40 0 0 -320 0 -320 40 0 40 0 0 -240 0
-240 40 0 40 0 0 -160 0 -160 40 0 40 0 0 -120 0 -120 40 0 40 0 0 -80 0 -80
40 0 40 0 0 -80 0 -80 40 0 40 0 0 -40 0 -40 40 0 40 0 0 -40 0 -40 40 0 40 0
0 -80 0 -80 40 0 40 0 0 -40 0 -40 40 0 40 0 0 -40 0 -40 40 0 40 0 0 -40 0
-40 40 0 40 0 0 -40 0 -40 80 0 80 0 0 -40 0 -40 40 0 40 0 0 -40 0 -40 80 0
80 0 0 -40 0 -40 80 0 80 0 0 -40 0 -40 80 0 80 0 0 -40 0 -40 80 0 80 0 0
-40 0 -40 80 0 80 0 0 -40 0 -40 120 0 120 0 0 -40 0 -40 120 0 120 0 0 -40 0
-40 120 0 120 0 0 -40 0 -40 120 0 120 0 0 -40 0 -40 160 0 160 0 0 -40 0 -40
200 0 200 0 0 -40 0 -40 520 0 520 0 0 40 0 40 160 0 160 0 0 40 0 40 80 0 80
0 0 40 0 40 80 0 80 0 0 40 0 40 40 0 40 0 0 40 0 40 80 0 80 0 0 40 0 40 40
0 40 0 0 40 0 40 40 0 40 0 0 40 0 40 40 0 40 0 0 40 0 40 40 0 40 0 0 40 0
40 80 0 80 0 0 40 0 40 40 0 40 0 0 40 0 40 40 0 40 0 0 40 0 40 80 0 80 0 0
40 0 40 40 0 40 0 0 40 0 40 80 0 80 0 0 40 0 40 120 0 120 0 0 40 0 40 360 0
360 0 0 -40 0 -40 120 0 120 0 0 -40 0 -40 80 0 80 0 0 -40 0 -40 120 0 120 0
0 -40 0 -40 80 0 80 0 0 -40 0 -40 80 0 80 0 0 -40 0 -40 360 0 360 0 0 40 0
40 120 0 120 0 0 40 0 40 80 0 80 0 0 40 0 40 40 0 40 0 0 40 0 40 80 0 80 0
0 40 0 40 40 0 40 0 0 40 0 40 80 0 80 0 0 40 0 40 40 0 40 0 0 40 0 40 40 0
40 0 0 40 0 40 80 0 80 0 0 40 0 40 40 0 40 0 0 40 0 40 80 0 80 0 0 40 0 40
80 0 80 0 0 40 0 40 80 0 80 0 0 40 0 40 80 0 80 0 0 40 0 40 80 0 80 0 0 40
0 40 80 0 80 0 0 40 0 40 80 0 80 0 0 40 0 40 120 0 120 0 0 40 0 40 80 0 80
0 0 40 0 40 80 0 80 0 0 40 0 40 40 0 40 0 0 40 0 40 80 0 80 0 0 40 0 40 40
0 40 0 0 40 0 40 40 0 40 0 0 40 0 40 40 0 40 0 0 40 0 40 40 0 40 0 0 40 0
40 40 0 40 0 0 40 0 40 40 0 40 0 0 80 0 80 40 0 40 0 0 80 0 80 40 0 40 0 0
120 0 120 40 0 40 0 0 280 0 280 40 0 40 0 0 40 0 40 -40 0 -40 0 0 160 0 160
-40 0 -40 0 0 640 0 640 40 0 40 0 0 320 0 320 -40 0 -40 0 0 240 0 240 -40 0
-40 0 0 160 0 160 -40 0 -40 0 0 120 0 120 -40 0 -40 0 0 120 0 120 -40 0 -40
0 0 80 0 80 -40 0 -40 0 0 80 0 80 -40 0 -40 0 0 80 0 80 -40 0 -40 0 0 80 0
80 -40 0 -40 0 0 40 0 40 -40 0 -40 0 0 80 0 80 -40 0 -40 0 0 40 0 40 -40 0
-40 0 0 40 0 40 -40 0 -40 0 0 40 0 40 -40 0 -40 0 0 80 0 80 -40 0 -40 0 0
40 0 40 -80 0 -80 0 0 40 0 40 -40 0 -40 0 0 40 0 40 -40 0 -40 0 0 40 0 40
-40 0 -40 0 0 40 0 40 -80 0 -80 0 0 40 0 40 -40 0 -40 0 0 40 0 40 -80 0 -80
0 0 40 0 40 -80 0 -80 0 0 40 0 40 -120 0 -120 0 0 40 0 40 -160 0 -160 0 0
40 0 40 -640 0 -640 0 0 -40z"/>
</g>
</svg>
